<svg xmlns="http://www.w3.org/2000/svg" xmlns:xlink="http://www.w3.org/1999/xlink" width="600" zoomAndPan="magnify" viewBox="0 0 450 179.999997" height="240" preserveAspectRatio="xMidYMid meet" version="1.0"><defs><clipPath id="64af29e948"><path d="M 13.5 70.503906 L 54 70.503906 L 54 114.753906 L 13.5 114.753906 Z M 13.5 70.503906 " clip-rule="nonzero"/></clipPath><clipPath id="d0dbb028de"><path d="M 65.179688 70 L 127 70 L 127 113 L 65.179688 113 Z M 65.179688 70 " clip-rule="nonzero"/></clipPath><clipPath id="0adf7b60cb"><path d="M 65.179688 68.320312 L 118 68.320312 L 118 114.820312 L 65.179688 114.820312 Z M 65.179688 68.320312 " clip-rule="nonzero"/></clipPath><clipPath id="1ae7a02702"><path d="M 125 82 L 198.679688 82 L 198.679688 104 L 125 104 Z M 125 82 " clip-rule="nonzero"/></clipPath><clipPath id="9e3777e9dd"><path d="M 210 68 L 256 68 L 256 114.660156 L 210 114.660156 Z M 210 68 " clip-rule="nonzero"/></clipPath><clipPath id="b5c159ef0a"><path d="M 326.664062 77 L 359.664062 77 L 359.664062 114.820312 L 326.664062 114.820312 Z M 326.664062 77 " clip-rule="nonzero"/></clipPath><clipPath id="65cd48937f"><path d="M 334 68.320312 L 340 68.320312 L 340 75 L 334 75 Z M 334 68.320312 " clip-rule="nonzero"/></clipPath><clipPath id="c6abc80439"><path d="M 340 68.320312 L 346 68.320312 L 346 75 L 340 75 Z M 340 68.320312 " clip-rule="nonzero"/></clipPath><clipPath id="1f3c883af8"><path d="M 346 68.320312 L 352 68.320312 L 352 75 L 346 75 Z M 346 68.320312 " clip-rule="nonzero"/></clipPath><clipPath id="eb19fb2d2b"><path d="M 275.054688 77 L 308.054688 77 L 308.054688 114.820312 L 275.054688 114.820312 Z M 275.054688 77 " clip-rule="nonzero"/></clipPath><clipPath id="ab6707191d"><path d="M 278 68.320312 L 285 68.320312 L 285 75 L 278 75 Z M 278 68.320312 " clip-rule="nonzero"/></clipPath><clipPath id="f2660df261"><path d="M 285 68.320312 L 291 68.320312 L 291 75 L 285 75 Z M 285 68.320312 " clip-rule="nonzero"/></clipPath><clipPath id="4edc00a606"><path d="M 291 68.320312 L 299 68.320312 L 299 75 L 291 75 Z M 291 68.320312 " clip-rule="nonzero"/></clipPath><clipPath id="3c69448565"><path d="M 299 68.320312 L 306 68.320312 L 306 75 L 299 75 Z M 299 68.320312 " clip-rule="nonzero"/></clipPath><clipPath id="a2b47c4bdb"><path d="M 378.273438 65.160156 L 427.773438 65.160156 L 427.773438 114.660156 L 378.273438 114.660156 Z M 378.273438 65.160156 " clip-rule="nonzero"/></clipPath></defs><g clip-path="url(#64af29e948)"><path fill="#8cc84b" d="M 31.878906 71.09375 C 32.992188 70.46875 34.410156 70.46875 35.496094 71.09375 L 52.105469 80.375 C 53.144531 80.953125 53.839844 82.101562 53.832031 83.289062 L 53.832031 101.898438 C 53.839844 103.136719 53.074219 104.308594 51.980469 104.878906 L 35.457031 114.117188 C 34.882812 114.429688 34.265625 114.578125 33.609375 114.5625 C 32.953125 114.542969 32.34375 114.363281 31.789062 114.015625 L 26.828125 111.175781 C 26.492188 110.976562 26.113281 110.816406 25.871094 110.492188 C 26.085938 110.210938 26.460938 110.175781 26.765625 110.050781 C 27.457031 109.835938 28.085938 109.5 28.722656 109.148438 C 28.878906 109.039062 29.078125 109.078125 29.230469 109.179688 L 33.457031 111.601562 C 33.757812 111.773438 34.066406 111.546875 34.324219 111.402344 L 50.546875 102.328125 C 50.746094 102.230469 50.859375 102.019531 50.839844 101.804688 L 50.839844 83.371094 C 50.863281 83.125 50.71875 82.898438 50.492188 82.796875 L 34.015625 73.597656 C 33.796875 73.453125 33.582031 73.449219 33.367188 73.597656 L 16.910156 82.816406 C 16.6875 82.917969 16.535156 83.140625 16.5625 83.386719 L 16.5625 101.820312 C 16.542969 102.035156 16.660156 102.242188 16.863281 102.335938 L 21.257812 104.796875 C 22.085938 105.238281 23.097656 105.484375 24.007812 105.160156 C 24.417969 105.007812 24.742188 104.753906 24.992188 104.398438 C 25.238281 104.042969 25.359375 103.652344 25.359375 103.21875 L 25.363281 84.898438 C 25.34375 84.628906 25.601562 84.402344 25.867188 84.429688 L 27.980469 84.429688 C 28.261719 84.421875 28.480469 84.714844 28.441406 84.988281 L 28.4375 103.425781 C 28.4375 105.0625 27.761719 106.84375 26.230469 107.648438 C 24.347656 108.613281 22.019531 108.410156 20.160156 107.480469 L 15.429688 104.890625 C 14.320312 104.339844 13.570312 103.148438 13.578125 101.914062 L 13.578125 83.300781 C 13.582031 82.6875 13.746094 82.113281 14.066406 81.585938 C 14.382812 81.058594 14.816406 80.644531 15.363281 80.351562 Z M 36.671875 83.996094 C 39.070312 83.855469 41.644531 83.902344 43.804688 85.078125 C 45.476562 85.976562 46.40625 87.859375 46.4375 89.707031 C 46.386719 89.953125 46.128906 90.089844 45.886719 90.074219 C 45.191406 90.074219 44.496094 90.082031 43.796875 90.070312 C 43.5 90.082031 43.328125 89.808594 43.292969 89.550781 C 43.089844 88.667969 42.605469 87.796875 41.769531 87.371094 C 40.484375 86.730469 38.992188 86.765625 37.589844 86.777344 C 36.566406 86.832031 35.46875 86.917969 34.601562 87.515625 C 33.933594 87.96875 33.734375 88.894531 33.972656 89.613281 C 34.191406 90.140625 34.808594 90.3125 35.3125 90.46875 C 38.207031 91.21875 41.273438 91.15625 44.113281 92.132812 C 45.289062 92.535156 46.441406 93.316406 46.84375 94.539062 C 47.367188 96.171875 47.140625 98.125 45.96875 99.4375 C 45.015625 100.519531 43.628906 101.09375 42.246094 101.425781 C 40.40625 101.832031 38.5 101.84375 36.632812 101.660156 C 34.875 101.460938 33.046875 101.003906 31.691406 99.820312 C 30.53125 98.820312 29.96875 97.265625 30.023438 95.765625 C 30.035156 95.511719 30.289062 95.335938 30.535156 95.359375 L 32.625 95.359375 C 32.902344 95.339844 33.109375 95.578125 33.125 95.839844 C 33.253906 96.667969 33.570312 97.5625 34.3125 98.046875 C 35.738281 98.957031 37.527344 98.894531 39.160156 98.921875 C 40.515625 98.863281 42.03125 98.84375 43.136719 97.957031 C 43.722656 97.449219 43.894531 96.605469 43.738281 95.878906 C 43.566406 95.261719 42.902344 94.976562 42.34375 94.773438 C 39.488281 93.878906 36.386719 94.203125 33.554688 93.1875 C 32.40625 92.785156 31.296875 92.027344 30.855469 90.855469 C 30.238281 89.199219 30.523438 87.152344 31.820312 85.882812 C 33.070312 84.621094 34.90625 84.136719 36.644531 83.960938 Z M 36.671875 83.996094 " fill-opacity="1" fill-rule="nonzero"/></g><path fill="#00d8ff" d="M 95.328125 91.527344 C 95.328125 91.820312 95.300781 92.109375 95.242188 92.398438 C 95.183594 92.6875 95.101562 92.964844 94.988281 93.234375 C 94.875 93.507812 94.738281 93.765625 94.574219 94.007812 C 94.410156 94.25 94.226562 94.476562 94.019531 94.683594 C 93.808594 94.890625 93.585938 95.078125 93.339844 95.238281 C 93.097656 95.402344 92.839844 95.539062 92.566406 95.652344 C 92.296875 95.765625 92.015625 95.847656 91.726562 95.90625 C 91.4375 95.964844 91.148438 95.992188 90.855469 95.992188 C 90.5625 95.992188 90.269531 95.964844 89.980469 95.90625 C 89.695312 95.847656 89.414062 95.765625 89.140625 95.652344 C 88.871094 95.539062 88.613281 95.402344 88.367188 95.238281 C 88.125 95.078125 87.898438 94.890625 87.691406 94.683594 C 87.484375 94.476562 87.296875 94.25 87.132812 94.007812 C 86.972656 93.765625 86.832031 93.507812 86.722656 93.234375 C 86.609375 92.964844 86.523438 92.6875 86.464844 92.398438 C 86.410156 92.109375 86.378906 91.820312 86.378906 91.527344 C 86.378906 91.234375 86.410156 90.945312 86.464844 90.65625 C 86.523438 90.371094 86.609375 90.089844 86.722656 89.820312 C 86.832031 89.546875 86.972656 89.292969 87.132812 89.046875 C 87.296875 88.804688 87.484375 88.578125 87.691406 88.371094 C 87.898438 88.164062 88.125 87.976562 88.367188 87.816406 C 88.613281 87.652344 88.871094 87.515625 89.140625 87.402344 C 89.414062 87.289062 89.695312 87.207031 89.980469 87.148438 C 90.269531 87.089844 90.5625 87.0625 90.855469 87.0625 C 91.148438 87.0625 91.4375 87.089844 91.726562 87.148438 C 92.015625 87.207031 92.296875 87.289062 92.566406 87.402344 C 92.839844 87.515625 93.097656 87.652344 93.339844 87.816406 C 93.585938 87.976562 93.808594 88.164062 94.019531 88.371094 C 94.226562 88.578125 94.410156 88.804688 94.574219 89.046875 C 94.738281 89.292969 94.875 89.546875 94.988281 89.820312 C 95.101562 90.089844 95.183594 90.371094 95.242188 90.65625 C 95.300781 90.945312 95.328125 91.234375 95.328125 91.527344 Z M 95.328125 91.527344 " fill-opacity="1" fill-rule="nonzero"/><g clip-path="url(#d0dbb028de)"><path stroke-linecap="butt" transform="matrix(0.0891791, 0, 0, 0.0889923, 66.818093, 70.380413)" fill="none" stroke-linejoin="miter" d="M 269.540494 135.616344 C 336.864643 135.616344 399.458143 145.273082 446.633229 161.557855 C 503.488626 181.090803 538.442869 210.763326 538.442869 237.626616 C 538.442869 265.631157 501.386115 297.14724 440.369499 317.338601 C 394.201865 332.6577 333.491865 340.646456 269.540494 340.646456 C 203.968438 340.646456 141.900566 333.140537 95.251108 317.206919 C 36.205595 297.015557 0.63812 265.104426 0.63812 237.626616 C 0.63812 210.982797 33.971677 181.57364 90.038633 161.996797 C 137.388929 145.492554 201.515509 135.616344 269.540494 135.616344 Z M 269.540494 135.616344 " stroke="#00d8ff" stroke-width="24" stroke-opacity="1" stroke-miterlimit="4"/></g><g clip-path="url(#0adf7b60cb)"><path stroke-linecap="butt" transform="matrix(0.0891791, 0, 0, 0.0889923, 66.818093, 70.380413)" fill="none" stroke-linejoin="miter" d="M 180.753214 186.92874 C 214.393388 128.593262 254.034477 79.212213 291.66066 46.423197 C 336.99605 6.962253 380.141324 -8.488528 403.444153 4.943117 C 427.666829 18.901493 436.471094 66.746242 423.50561 129.734513 C 413.693893 177.35979 390.259658 233.939498 358.327775 289.33406 C 325.563648 346.133239 288.068871 396.172702 250.924513 428.610563 C 203.968438 469.695596 158.545444 484.531857 134.76079 470.836846 C 111.676973 457.536884 102.872709 413.905985 113.910891 355.570506 C 123.284585 306.321141 146.762623 245.834844 180.709412 186.92874 Z M 180.753214 186.92874 " stroke="#00d8ff" stroke-width="24" stroke-opacity="1" stroke-miterlimit="4"/><path stroke-linecap="butt" transform="matrix(0.0891791, 0, 0, 0.0889923, 66.818093, 70.380413)" fill="none" stroke-linejoin="miter" d="M 180.840819 289.465743 C 147.069239 231.218053 124.116829 172.180267 114.524123 123.238161 C 102.960314 64.244269 111.107543 19.120965 134.366569 5.645425 C 158.589246 -8.356845 204.450264 7.884033 252.501396 50.593153 C 288.857313 82.899332 326.220682 131.446389 358.24017 186.753163 C 391.091902 243.508448 415.708799 300.966041 425.257702 349.337521 C 437.390942 410.57002 427.579225 457.317413 403.838373 471.100212 C 380.754557 484.444069 338.572933 470.310115 293.587962 431.595373 C 255.567558 398.894146 214.875213 348.327953 180.797017 289.465743 Z M 180.840819 289.465743 " stroke="#00d8ff" stroke-width="24" stroke-opacity="1" stroke-miterlimit="4"/></g><g clip-path="url(#1ae7a02702)"><path fill="#00d8ff" d="M 140.515625 102.933594 L 135.03125 94.667969 C 137.804688 94.421875 140.300781 92.417969 140.300781 88.757812 C 140.300781 85.03125 137.652344 82.648438 133.933594 82.648438 L 125.773438 82.648438 L 125.773438 102.917969 L 128.300781 102.917969 L 128.300781 94.863281 L 132.351562 94.863281 L 137.53125 102.917969 Z M 133.632812 92.660156 L 128.304688 92.660156 L 128.304688 84.914062 L 133.632812 84.914062 C 136.039062 84.914062 137.683594 86.492188 137.683594 88.773438 C 137.683594 91.050781 136.039062 92.664062 133.632812 92.664062 Z M 149.925781 103.296875 C 152.332031 103.296875 154.3125 102.507812 155.773438 101.050781 L 154.675781 99.558594 C 153.519531 100.746094 151.816406 101.414062 150.140625 101.414062 C 146.972656 101.414062 145.023438 99.105469 144.839844 96.339844 L 156.746094 96.339844 L 156.746094 95.761719 C 156.746094 91.355469 154.128906 87.890625 149.679688 87.890625 C 145.476562 87.890625 142.433594 91.324219 142.433594 95.578125 C 142.433594 100.167969 145.570312 103.285156 149.925781 103.285156 Z M 154.496094 94.664062 L 144.839844 94.664062 C 144.964844 92.417969 146.515625 89.773438 149.652344 89.773438 C 153.003906 89.773438 154.464844 92.476562 154.496094 94.664062 Z M 171.917969 102.933594 L 171.917969 92.84375 C 171.917969 89.289062 169.328125 87.886719 166.222656 87.886719 C 163.816406 87.886719 161.929688 88.679688 160.34375 90.320312 L 161.410156 91.898438 C 162.71875 90.503906 164.152344 89.863281 165.917969 89.863281 C 168.050781 89.863281 169.636719 90.988281 169.636719 92.964844 L 169.636719 95.605469 C 168.445312 94.238281 166.773438 93.601562 164.761719 93.601562 C 162.265625 93.601562 159.613281 95.152344 159.613281 98.433594 C 159.613281 101.625 162.261719 103.296875 164.761719 103.296875 C 166.742188 103.296875 168.417969 102.597656 169.636719 101.261719 L 169.636719 102.929688 Z M 165.582031 101.65625 C 163.453125 101.65625 161.960938 100.320312 161.960938 98.464844 C 161.960938 96.582031 163.453125 95.242188 165.582031 95.242188 C 167.199219 95.242188 168.75 95.851562 169.636719 97.066406 L 169.636719 99.832031 C 168.75 101.046875 167.199219 101.65625 165.582031 101.65625 Z M 182.960938 103.296875 C 185.640625 103.296875 187.226562 102.203125 188.351562 100.746094 L 186.828125 99.347656 C 185.855469 100.652344 184.605469 101.261719 183.097656 101.261719 C 179.960938 101.261719 178.011719 98.832031 178.011719 95.578125 C 178.011719 92.328125 179.960938 89.925781 183.097656 89.925781 C 184.621094 89.925781 185.867188 90.503906 186.828125 91.839844 L 188.351562 90.445312 C 187.226562 88.984375 185.640625 87.890625 182.960938 87.890625 C 178.574219 87.890625 175.621094 91.234375 175.621094 95.582031 C 175.621094 99.957031 178.574219 103.289062 182.960938 103.289062 Z M 195.265625 103.296875 C 196.605469 103.296875 197.429688 102.902344 198.007812 102.355469 L 197.339844 100.652344 C 197.035156 100.988281 196.4375 101.261719 195.785156 101.261719 C 194.78125 101.261719 194.292969 100.472656 194.292969 99.378906 L 194.292969 90.261719 L 197.28125 90.261719 L 197.28125 88.253906 L 194.292969 88.253906 L 194.292969 84.242188 L 192.007812 84.242188 L 192.007812 88.253906 L 189.570312 88.253906 L 189.570312 90.261719 L 192.007812 90.261719 L 192.007812 99.867188 C 192.007812 102.054688 193.105469 103.300781 195.265625 103.300781 Z M 195.265625 103.296875 " fill-opacity="1" fill-rule="evenodd"/></g><g clip-path="url(#9e3777e9dd)"><path fill="#000000" d="M 255.660156 95.960938 C 255.386719 95.136719 254.667969 94.5625 253.738281 94.425781 C 253.300781 94.363281 252.800781 94.386719 252.207031 94.511719 C 251.171875 94.722656 250.40625 94.804688 249.84375 94.820312 C 251.957031 91.277344 253.679688 87.238281 254.667969 83.433594 C 256.265625 77.289062 255.410156 74.488281 254.410156 73.21875 C 251.769531 69.867188 247.910156 68.066406 243.257812 68.011719 C 240.777344 67.980469 238.597656 68.464844 237.460938 68.816406 C 236.402344 68.632812 235.265625 68.527344 234.070312 68.507812 C 231.832031 68.472656 229.855469 68.957031 228.164062 69.953125 C 227.230469 69.636719 225.726562 69.195312 223.996094 68.914062 C 219.917969 68.25 216.628906 68.765625 214.226562 70.453125 C 211.3125 72.492188 209.964844 76.039062 210.214844 80.996094 C 210.292969 82.566406 211.179688 87.351562 212.574219 91.890625 C 213.378906 94.5 214.234375 96.664062 215.117188 98.328125 C 216.371094 100.6875 217.714844 102.078125 219.222656 102.578125 C 220.066406 102.855469 221.601562 103.054688 223.214844 101.71875 C 223.417969 101.964844 223.691406 102.207031 224.054688 102.433594 C 224.515625 102.722656 225.078125 102.960938 225.640625 103.097656 C 227.664062 103.601562 229.558594 103.476562 231.175781 102.769531 C 231.1875 103.058594 231.195312 103.328125 231.203125 103.566406 C 231.214844 103.949219 231.222656 104.320312 231.238281 104.671875 C 231.332031 107.042969 231.496094 108.886719 231.976562 110.175781 C 232.003906 110.246094 232.039062 110.355469 232.078125 110.46875 C 232.316406 111.199219 232.71875 112.421875 233.738281 113.378906 C 234.796875 114.371094 236.078125 114.671875 237.25 114.671875 C 237.835938 114.671875 238.398438 114.597656 238.890625 114.492188 C 240.644531 114.121094 242.632812 113.550781 244.074219 111.515625 C 245.4375 109.589844 246.097656 106.691406 246.21875 102.121094 C 246.234375 101.992188 246.246094 101.871094 246.261719 101.753906 C 246.269531 101.675781 246.28125 101.59375 246.289062 101.511719 L 246.613281 101.539062 L 246.695312 101.542969 C 248.480469 101.625 250.664062 101.25 252.003906 100.632812 C 253.0625 100.144531 256.460938 98.363281 255.660156 95.960938 " fill-opacity="1" fill-rule="nonzero"/></g><path fill="#336791" d="M 252.605469 96.429688 C 247.296875 97.515625 246.929688 95.730469 246.929688 95.730469 C 252.539062 87.472656 254.882812 76.992188 252.859375 74.425781 C 247.34375 67.429688 237.789062 70.738281 237.632812 70.824219 L 237.578125 70.832031 C 236.53125 70.617188 235.355469 70.488281 234.039062 70.46875 C 231.632812 70.429688 229.8125 71.09375 228.429688 72.132812 C 228.429688 72.132812 211.390625 65.164062 212.183594 80.894531 C 212.355469 84.242188 217.015625 106.21875 222.578125 99.578125 C 224.613281 97.152344 226.574219 95.101562 226.574219 95.101562 C 227.550781 95.746094 228.71875 96.070312 229.945312 95.957031 L 230.039062 95.875 C 230.011719 96.175781 230.023438 96.472656 230.078125 96.820312 C 228.644531 98.40625 229.066406 98.6875 226.199219 99.273438 C 223.300781 99.867188 225.003906 100.921875 226.117188 101.199219 C 227.464844 101.53125 230.582031 102.007812 232.691406 99.078125 L 232.605469 99.414062 C 233.167969 99.859375 233.5625 102.316406 233.496094 104.542969 C 233.429688 106.773438 233.382812 108.300781 233.828125 109.496094 C 234.269531 110.691406 234.710938 113.375 238.476562 112.574219 C 241.621094 111.90625 243.253906 110.171875 243.480469 107.277344 C 243.640625 105.222656 244.003906 105.527344 244.027344 103.6875 L 244.320312 102.816406 C 244.65625 100.027344 244.371094 99.128906 246.3125 99.546875 L 246.78125 99.589844 C 248.210938 99.652344 250.078125 99.359375 251.171875 98.855469 C 253.535156 97.765625 254.933594 95.953125 252.605469 96.429688 " fill-opacity="1" fill-rule="nonzero"/><path fill="#ffffff" d="M 229.429688 82.394531 C 228.949219 82.328125 228.515625 82.386719 228.296875 82.550781 C 228.171875 82.644531 228.136719 82.753906 228.125 82.828125 C 228.097656 83.023438 228.234375 83.238281 228.320312 83.351562 C 228.558594 83.667969 228.910156 83.882812 229.257812 83.933594 C 229.308594 83.9375 229.359375 83.941406 229.410156 83.941406 C 229.988281 83.941406 230.515625 83.496094 230.5625 83.164062 C 230.621094 82.75 230.011719 82.472656 229.429688 82.394531 " fill-opacity="1" fill-rule="nonzero"/><path fill="#ffffff" d="M 245.277344 82.40625 C 245.230469 82.082031 244.652344 81.988281 244.097656 82.066406 C 243.546875 82.140625 243.011719 82.386719 243.058594 82.714844 C 243.09375 82.964844 243.554688 83.398438 244.097656 83.398438 C 244.144531 83.398438 244.191406 83.394531 244.238281 83.386719 C 244.601562 83.339844 244.867188 83.109375 244.996094 82.976562 C 245.1875 82.777344 245.296875 82.550781 245.277344 82.40625 " fill-opacity="1" fill-rule="nonzero"/><path fill="#ffffff" d="M 254.371094 96.304688 C 254.171875 95.699219 253.519531 95.5 252.433594 95.726562 C 249.222656 96.382812 248.070312 95.925781 247.691406 95.648438 C 250.191406 91.871094 252.246094 87.304688 253.355469 83.042969 C 253.882812 81.023438 254.171875 79.148438 254.195312 77.621094 C 254.222656 75.945312 253.933594 74.710938 253.339844 73.957031 C 250.945312 70.921875 247.433594 69.296875 243.183594 69.25 C 240.261719 69.21875 237.792969 69.960938 237.3125 70.167969 C 236.308594 69.921875 235.207031 69.769531 234.011719 69.75 C 231.816406 69.714844 229.921875 70.234375 228.351562 71.296875 C 227.667969 71.046875 225.90625 70.445312 223.75 70.101562 C 220.023438 69.503906 217.0625 69.957031 214.949219 71.441406 C 212.429688 73.214844 211.265625 76.386719 211.488281 80.863281 C 211.566406 82.371094 212.429688 87.003906 213.796875 91.441406 C 215.59375 97.285156 217.542969 100.59375 219.597656 101.273438 C 219.839844 101.351562 220.117188 101.410156 220.421875 101.410156 C 221.171875 101.410156 222.089844 101.074219 223.046875 99.933594 C 224.636719 98.035156 226.117188 96.445312 226.664062 95.867188 C 227.472656 96.300781 228.359375 96.539062 229.265625 96.5625 C 229.269531 96.585938 229.269531 96.609375 229.273438 96.632812 C 229.089844 96.847656 228.941406 97.035156 228.8125 97.199219 C 228.183594 97.988281 228.054688 98.15625 226.03125 98.566406 C 225.453125 98.6875 223.925781 99 223.902344 100.0625 C 223.878906 101.226562 225.710938 101.714844 225.917969 101.765625 C 226.648438 101.945312 227.347656 102.035156 228.015625 102.035156 C 229.640625 102.035156 231.070312 101.507812 232.214844 100.480469 C 232.179688 104.625 232.355469 108.707031 232.855469 109.953125 C 233.265625 110.972656 234.269531 113.460938 237.4375 113.460938 C 237.902344 113.460938 238.414062 113.40625 238.976562 113.285156 C 242.28125 112.582031 243.71875 111.132812 244.273438 107.933594 C 244.570312 106.226562 245.082031 102.140625 245.320312 99.953125 C 245.828125 100.109375 246.480469 100.183594 247.183594 100.183594 C 248.652344 100.183594 250.351562 99.871094 251.414062 99.382812 C 252.609375 98.832031 254.761719 97.480469 254.371094 96.304688 Z M 246.5 81.511719 C 246.488281 82.15625 246.398438 82.742188 246.304688 83.355469 C 246.199219 84.015625 246.097656 84.695312 246.070312 85.523438 C 246.042969 86.328125 246.144531 87.164062 246.242188 87.972656 C 246.4375 89.605469 246.640625 91.289062 245.855469 92.949219 C 245.734375 92.734375 245.617188 92.5 245.507812 92.238281 C 245.410156 92.003906 245.199219 91.625 244.90625 91.101562 C 243.761719 89.070312 241.089844 84.304688 242.457031 82.363281 C 242.863281 81.785156 243.898438 81.191406 246.5 81.511719 Z M 243.347656 70.558594 C 247.15625 70.644531 250.167969 72.058594 252.304688 74.761719 C 253.9375 76.839844 252.136719 86.285156 246.921875 94.429688 C 246.871094 94.363281 246.820312 94.300781 246.761719 94.230469 C 246.742188 94.207031 246.71875 94.175781 246.699219 94.152344 C 248.046875 91.941406 247.78125 89.753906 247.546875 87.816406 C 247.449219 87.019531 247.359375 86.269531 247.382812 85.5625 C 247.40625 84.816406 247.507812 84.175781 247.601562 83.554688 C 247.722656 82.789062 247.84375 82 247.808594 81.066406 C 247.835938 80.96875 247.84375 80.851562 247.832031 80.714844 C 247.746094 79.820312 246.71875 77.144531 244.621094 74.722656 C 243.476562 73.398438 241.804688 71.917969 239.519531 70.917969 C 240.503906 70.714844 241.84375 70.527344 243.347656 70.558594 Z M 222.035156 99.097656 C 220.980469 100.355469 220.253906 100.113281 220.015625 100.035156 C 218.457031 99.515625 216.648438 96.246094 215.054688 91.0625 C 213.671875 86.574219 212.867188 82.0625 212.804688 80.796875 C 212.601562 76.796875 213.578125 74.007812 215.707031 72.507812 C 219.171875 70.070312 224.867188 71.53125 227.15625 72.269531 C 227.125 72.300781 227.089844 72.332031 227.058594 72.363281 C 223.300781 76.128906 223.390625 82.5625 223.398438 82.957031 C 223.398438 83.109375 223.410156 83.324219 223.429688 83.617188 C 223.492188 84.699219 223.613281 86.714844 223.292969 88.996094 C 222.996094 91.113281 223.652344 93.1875 225.097656 94.683594 C 225.246094 94.839844 225.402344 94.984375 225.566406 95.121094 C 224.921875 95.804688 223.523438 97.320312 222.035156 99.097656 Z M 226.046875 93.78125 C 224.882812 92.574219 224.355469 90.894531 224.597656 89.175781 C 224.933594 86.765625 224.808594 84.667969 224.742188 83.539062 C 224.734375 83.382812 224.726562 83.246094 224.71875 83.136719 C 225.269531 82.652344 227.8125 81.300781 229.625 81.714844 C 230.453125 81.902344 230.957031 82.460938 231.167969 83.421875 C 232.25 88.402344 231.308594 90.476562 230.554688 92.148438 C 230.398438 92.488281 230.25 92.816406 230.125 93.152344 L 230.027344 93.410156 C 229.777344 94.070312 229.550781 94.679688 229.40625 95.257812 C 228.167969 95.253906 226.964844 94.730469 226.046875 93.78125 Z M 226.238281 100.5 C 225.875 100.410156 225.550781 100.253906 225.359375 100.125 C 225.519531 100.046875 225.804688 99.949219 226.296875 99.847656 C 228.675781 99.359375 229.046875 99.015625 229.847656 98.003906 C 230.03125 97.773438 230.238281 97.507812 230.527344 97.191406 L 230.527344 97.1875 C 230.960938 96.710938 231.15625 96.792969 231.515625 96.9375 C 231.804688 97.058594 232.085938 97.417969 232.199219 97.8125 C 232.253906 98 232.3125 98.355469 232.117188 98.632812 C 230.4375 100.964844 227.992188 100.933594 226.238281 100.5 Z M 238.699219 112.011719 C 235.785156 112.628906 234.753906 111.152344 234.078125 109.464844 C 233.636719 108.378906 233.421875 103.46875 233.574219 98.042969 C 233.578125 97.972656 233.566406 97.902344 233.546875 97.835938 C 233.527344 97.710938 233.5 97.582031 233.464844 97.453125 C 233.238281 96.664062 232.683594 96.007812 232.019531 95.730469 C 231.753906 95.625 231.269531 95.421875 230.6875 95.570312 C 230.8125 95.0625 231.023438 94.488281 231.257812 93.867188 L 231.355469 93.605469 C 231.46875 93.3125 231.605469 93.003906 231.753906 92.683594 C 232.542969 90.9375 233.628906 88.546875 232.453125 83.144531 C 232.011719 81.125 230.539062 80.136719 228.308594 80.363281 C 226.972656 80.503906 225.75 81.039062 225.136719 81.34375 C 225.007812 81.410156 224.886719 81.476562 224.773438 81.535156 C 224.945312 79.5 225.589844 75.691406 227.996094 73.28125 C 229.511719 71.761719 231.527344 71.011719 233.988281 71.054688 C 238.835938 71.132812 241.941406 73.601562 243.695312 75.65625 C 245.207031 77.429688 246.023438 79.214844 246.351562 80.179688 C 243.894531 79.929688 242.222656 80.414062 241.378906 81.613281 C 239.535156 84.226562 242.386719 89.300781 243.753906 91.738281 C 244.007812 92.183594 244.222656 92.570312 244.292969 92.734375 C 244.738281 93.808594 245.316406 94.523438 245.734375 95.050781 C 245.863281 95.207031 245.992188 95.363281 246.085938 95.5 C 245.339844 95.710938 244.007812 96.203125 244.128906 98.664062 C 244.03125 99.894531 243.332031 105.671875 242.976562 107.710938 C 242.507812 110.40625 241.507812 111.410156 238.699219 112.011719 Z M 250.859375 98.195312 C 250.097656 98.546875 248.824219 98.808594 247.617188 98.867188 C 246.28125 98.929688 245.601562 98.71875 245.441406 98.589844 C 245.367188 97.058594 245.941406 96.894531 246.546875 96.726562 C 246.644531 96.699219 246.738281 96.675781 246.828125 96.644531 C 246.882812 96.6875 246.945312 96.734375 247.011719 96.777344 C 248.082031 97.480469 250 97.558594 252.699219 97.003906 C 252.710938 97 252.722656 97 252.730469 96.996094 C 252.367188 97.335938 251.742188 97.789062 250.859375 98.195312 Z M 250.859375 98.195312 " fill-opacity="1" fill-rule="nonzero"/><g clip-path="url(#b5c159ef0a)"><path fill="#264de4" d="M 343.148438 114.816406 L 329.683594 111.082031 L 326.683594 77.457031 L 359.65625 77.457031 L 356.652344 111.078125 Z M 343.148438 114.816406 " fill-opacity="1" fill-rule="nonzero"/></g><path fill="#2965f1" d="M 354.082031 108.9375 L 356.648438 80.207031 L 343.171875 80.207031 L 343.171875 111.957031 Z M 354.082031 108.9375 " fill-opacity="1" fill-rule="nonzero"/><path fill="#ebebeb" d="M 333.5625 92.679688 L 333.933594 96.800781 L 343.171875 96.800781 L 343.171875 92.679688 Z M 333.5625 92.679688 " fill-opacity="1" fill-rule="nonzero"/><path fill="#ebebeb" d="M 332.820312 84.328125 L 333.195312 88.453125 L 343.171875 88.453125 L 343.171875 84.328125 Z M 332.820312 84.328125 " fill-opacity="1" fill-rule="nonzero"/><path fill="#ebebeb" d="M 343.171875 103.386719 L 343.152344 103.394531 L 338.554688 102.152344 L 338.261719 98.863281 L 334.117188 98.863281 L 334.695312 105.339844 L 343.152344 107.683594 L 343.171875 107.679688 Z M 343.171875 103.386719 " fill-opacity="1" fill-rule="nonzero"/><g clip-path="url(#65cd48937f)"><path fill="#000000" d="M 334.445312 68.320312 L 339.441406 68.320312 L 339.441406 70.40625 L 336.535156 70.40625 L 336.535156 72.496094 L 339.441406 72.496094 L 339.441406 74.585938 L 334.445312 74.585938 Z M 334.445312 68.320312 " fill-opacity="1" fill-rule="nonzero"/></g><g clip-path="url(#c6abc80439)"><path fill="#000000" d="M 340.441406 68.320312 L 345.441406 68.320312 L 345.441406 70.136719 L 342.535156 70.136719 L 342.535156 70.5 L 345.441406 70.5 L 345.441406 74.675781 L 340.441406 74.675781 L 340.441406 72.769531 L 343.351562 72.769531 L 343.351562 72.40625 L 340.441406 72.40625 Z M 340.441406 68.320312 " fill-opacity="1" fill-rule="nonzero"/></g><g clip-path="url(#1f3c883af8)"><path fill="#000000" d="M 346.441406 68.320312 L 351.441406 68.320312 L 351.441406 70.136719 L 348.53125 70.136719 L 348.53125 70.5 L 351.441406 70.5 L 351.441406 74.675781 L 346.441406 74.675781 L 346.441406 72.769531 L 349.351562 72.769531 L 349.351562 72.40625 L 346.441406 72.40625 Z M 346.441406 68.320312 " fill-opacity="1" fill-rule="nonzero"/></g><path fill="#ffffff" d="M 352.75 92.679688 L 353.496094 84.328125 L 343.15625 84.328125 L 343.15625 88.453125 L 348.972656 88.453125 L 348.597656 92.679688 L 343.15625 92.679688 L 343.15625 96.800781 L 348.238281 96.800781 L 347.761719 102.148438 L 343.15625 103.390625 L 343.15625 107.683594 L 351.617188 105.339844 L 351.679688 104.640625 L 352.652344 93.785156 Z M 352.75 92.679688 " fill-opacity="1" fill-rule="nonzero"/><g clip-path="url(#eb19fb2d2b)"><path fill="#e44d26" d="M 308.046875 77.457031 L 305.042969 111.078125 L 291.542969 114.816406 L 278.074219 111.082031 L 275.074219 77.457031 L 308.050781 77.457031 Z M 308.046875 77.457031 " fill-opacity="1" fill-rule="nonzero"/></g><path fill="#f16529" d="M 291.5625 111.957031 L 302.472656 108.9375 L 305.039062 80.207031 L 291.5625 80.207031 Z M 291.5625 111.957031 " fill-opacity="1" fill-rule="nonzero"/><path fill="#ebebeb" d="M 285.722656 88.453125 L 291.5625 88.453125 L 291.5625 84.328125 L 281.210938 84.328125 L 281.308594 85.4375 L 282.324219 96.800781 L 291.5625 96.800781 L 291.5625 92.679688 L 286.097656 92.679688 Z M 285.722656 88.453125 " fill-opacity="1" fill-rule="nonzero"/><path fill="#ebebeb" d="M 286.652344 98.863281 L 282.507812 98.863281 L 283.085938 105.339844 L 291.542969 107.683594 L 291.5625 107.679688 L 291.5625 103.386719 L 291.542969 103.394531 L 286.945312 102.152344 Z M 286.652344 98.863281 " fill-opacity="1" fill-rule="nonzero"/><g clip-path="url(#ab6707191d)"><path fill="#000000" d="M 278.144531 68.320312 L 280.242188 68.320312 L 280.242188 70.390625 L 282.160156 70.390625 L 282.160156 68.320312 L 284.257812 68.320312 L 284.257812 74.589844 L 282.160156 74.589844 L 282.160156 72.488281 L 280.242188 72.488281 L 280.242188 74.589844 L 278.144531 74.589844 Z M 278.144531 68.320312 " fill-opacity="1" fill-rule="nonzero"/></g><g clip-path="url(#f2660df261)"><path fill="#000000" d="M 287.015625 70.398438 L 285.167969 70.398438 L 285.167969 68.320312 L 290.960938 68.320312 L 290.960938 70.398438 L 289.113281 70.398438 L 289.113281 74.589844 L 287.015625 74.589844 Z M 287.015625 70.398438 " fill-opacity="1" fill-rule="nonzero"/></g><g clip-path="url(#4edc00a606)"><path fill="#000000" d="M 291.882812 68.320312 L 294.066406 68.320312 L 295.414062 70.523438 L 296.757812 68.320312 L 298.945312 68.320312 L 298.945312 74.589844 L 296.859375 74.589844 L 296.859375 71.480469 L 295.414062 73.710938 L 295.378906 73.710938 L 293.933594 71.480469 L 293.933594 74.589844 L 291.882812 74.589844 Z M 291.882812 68.320312 " fill-opacity="1" fill-rule="nonzero"/></g><g clip-path="url(#3c69448565)"><path fill="#000000" d="M 299.992188 68.320312 L 302.089844 68.320312 L 302.089844 72.515625 L 305.039062 72.515625 L 305.039062 74.589844 L 299.992188 74.589844 Z M 299.992188 68.320312 " fill-opacity="1" fill-rule="nonzero"/></g><path fill="#ffffff" d="M 291.546875 96.800781 L 296.632812 96.800781 L 296.152344 102.148438 L 291.546875 103.390625 L 291.546875 107.683594 L 300.011719 105.339844 L 300.070312 104.640625 L 301.042969 93.785156 L 301.144531 92.679688 L 291.546875 92.679688 Z M 291.546875 96.800781 " fill-opacity="1" fill-rule="nonzero"/><path fill="#ffffff" d="M 291.546875 88.445312 L 291.546875 88.453125 L 301.519531 88.453125 L 301.601562 87.527344 L 301.789062 85.4375 L 301.886719 84.328125 L 291.546875 84.328125 Z M 291.546875 88.445312 " fill-opacity="1" fill-rule="nonzero"/><g clip-path="url(#a2b47c4bdb)"><path fill="#f7df1e" d="M 378.273438 65.160156 L 427.773438 65.160156 L 427.773438 114.660156 L 378.273438 114.660156 Z M 378.273438 65.160156 " fill-opacity="1" fill-rule="nonzero"/></g><path fill="#000000" d="M 391.289062 106.527344 L 395.074219 104.234375 C 395.804688 105.53125 396.472656 106.628906 398.066406 106.628906 C 399.59375 106.628906 400.558594 106.027344 400.558594 103.703125 L 400.558594 87.886719 L 405.207031 87.886719 L 405.207031 103.769531 C 405.207031 108.585938 402.386719 110.78125 398.265625 110.78125 C 394.542969 110.78125 392.382812 108.851562 391.285156 106.527344 " fill-opacity="1" fill-rule="nonzero"/><path fill="#000000" d="M 407.734375 106.027344 L 411.523438 103.835938 C 412.523438 105.464844 413.816406 106.660156 416.109375 106.660156 C 418.035156 106.660156 419.265625 105.699219 419.265625 104.367188 C 419.265625 102.773438 418.003906 102.207031 415.875 101.277344 L 414.714844 100.777344 C 411.359375 99.347656 409.132812 97.558594 409.132812 93.765625 C 409.132812 90.277344 411.789062 87.621094 415.945312 87.621094 C 418.902344 87.621094 421.027344 88.652344 422.554688 91.34375 L 418.933594 93.667969 C 418.136719 92.238281 417.273438 91.675781 415.945312 91.675781 C 414.582031 91.675781 413.714844 92.539062 413.714844 93.667969 C 413.714844 95.066406 414.582031 95.628906 416.574219 96.492188 L 417.738281 96.992188 C 421.691406 98.6875 423.917969 100.414062 423.917969 104.300781 C 423.917969 108.488281 420.628906 110.78125 416.210938 110.78125 C 411.890625 110.78125 409.097656 108.71875 407.734375 106.027344 " fill-opacity="1" fill-rule="nonzero"/></svg>